#!OML:ASF F:\VICON\USERDATA\INSTALL\Justin_Nancy\Justin_Nancy.ASF
:FULLY-SPECIFIED
:DEGREES
96
root -8.55066 16.3648 -7.71566 -1.6389 3.00506 4.54664
lowerback 5.60687 -2.32115 -7.71043
upperback -0.418629 -3.54141 2.26278
thorax -2.97498 -1.62524 6.98045
lowerneck -16.2919 -2.89261 -9.947
upperneck 20.2735 -2.62858 5.28898
head 9.28249 -1.42285 3.1435
rclavicle -2.81032e-014 1.98785e-014
rhumerus -41.1807 -13.6557 -73.6308
rradius 27.6074
rwrist 9.33702
rhand -13.2566 14.1847
rfingers 7.12502
rthumb 12.8459 -15.4
lclavicle -2.81032e-014 1.98785e-014
lhumerus -29.2302 5.98967 82.6874
lradius 37.4073
lwrist 5.92996
lhand -16.5118 29.784
lfingers 7.12502
lthumb 9.70638 59.5403
rfemur -35.5108 4.40471 7.88121
rtibia 25.5833
rfoot 2.82241 6.73275
rtoes -14.7894
lfemur 13.1616 -6.95507 -36.927
ltibia 33.1229
lfoot -16.1805 -7.45009
ltoes -1.84281
97
root -8.52543 16.3334 -7.46064 -2.00155 3.27696 4.01463
lowerback 5.99956 -2.31305 -7.25747
upperback -0.434018 -3.52006 2.50729
thorax -3.22645 -1.60812 7.00536
lowerneck -16.4472 -2.89977 -10.062
upperneck 20.7753 -2.58629 5.21959
head 9.48446 -1.4266 3.15126
rclavicle -1.22998e-015 -5.56597e-015
rhumerus -41.3154 -13.1211 -73.4305
rradius 27.6592
rwrist 9.54111
rhand -13.4487 13.646
rfingers 7.12502
rthumb 12.6607 -15.9503
lclavicle -1.22998e-015 -5.56597e-015
lhumerus -29.7005 6.67595 82.7206
lradius 37.4457
lwrist 5.93074
lhand -16.4586 29.9484
lfingers 7.12502
lthumb 9.75775 59.7023
rfemur -35.7954 4.62305 8.25711
rtibia 28.107
rfoot 3.49513 7.27025
rtoes -16.784
lfemur 13.4727 -6.81691 -36.6335
ltibia 34.7859
lfoot -14.8803 -7.0714
ltoes -3.64598
98
root -8.49951 16.2936 -7.20308 -2.42861 3.53361 3.5523
lowerback 6.31515 -2.26243 -6.81205
upperback -0.327525 -3.433 2.6577
thorax -3.32312 -1.57024 6.92017
lowerneck -16.7028 -2.92127 -9.90457
upperneck 21.2061 -2.58238 4.97812
head 9.67844 -1.44367 3.0463
rclavicle -5.75544e-015 -5.56597e-015
rhumerus -41.2115 -12.9062 -73.2713
rradius 27.7348
rwrist 10.0829
rhand -13.1133 12.6633
rfingers 7.12502
rthumb 12.984 -16.9127
lclavicle -5.75544e-015 -5.56597e-015
lhumerus -30.2245 7.07322 82.7297
lradius 37.6059
lwrist 5.81093
lhand -16.0913 29.6499
lfingers 7.12502
lthumb 10.112 59.3869
rfemur -35.8785 4.21292 8.84234
rtibia 30.7868
rfoot 2.739 7.71457
rtoes -15.579
lfemur 13.7322 -6.64627 -36.4408
ltibia 36.7752
lfoot -13.1983 -6.7108
ltoes -3.85711
99
root -8.4735 16.26 -6.96194 -2.77175 3.74419 2.79689
lowerback 6.68452 -2.17317 -6.03099
upperback -0.212256 -3.26668 2.82734
thorax -3.46993 -1.49664 6.65952
lowerneck -16.9846 -2.89903 -9.45342
upperneck 21.4508 -2.56791 4.64013
head 9.80508 -1.43926 2.85615
rclavicle 4.91138e-014 -3.97569e-015
rhumerus -41.0868 -13.0748 -73.115
rradius 27.7555
rwrist 10.7871
rhand -13.0974 12.3664
rfingers 7.12502
rthumb 12.9993 -17.2086
lclavicle 4.91138e-014 -3.97569e-015
lhumerus -30.5893 7.23176 82.7448
lradius 37.7067
lwrist 5.52172
lhand -16.1006 29.3624
lfingers 7.12502
lthumb 10.1031 59.0999
rfemur -36.0773 3.62558 9.8611
rtibia 33.4444
rfoot 1.46777 7.56559
rtoes -16.581
lfemur 13.5801 -6.36759 -35.8587
ltibia 39.0562
lfoot -11.2056 -6.32277
ltoes -3.65882
100
root -8.45271 16.2274 -6.72815 -3.20364 4.12851 1.87152
lowerback 7.20965 -2.1577 -5.26855
upperback -0.0946252 -3.19402 3.18025
thorax -3.67361 -1.46636 6.61923
lowerneck -16.9206 -2.86105 -9.30448
upperneck 21.2703 -2.48548 4.34327
head 9.71771 -1.41984 2.73502
rclavicle -3.41257e-014 1.51076e-014
rhumerus -40.7391 -13.4528 -72.6222
rradius 27.2538
rwrist 11.6435
rhand -13.2623 12.0308
rfingers 7.12502
rthumb 12.8403 -17.5542
lclavicle -3.41257e-014 1.51076e-014
lhumerus -30.9483 7.67083 82.9809
lradius 37.7217
lwrist 5.4961
lhand -16.4025 29.3113
lfingers 7.12502
lthumb 9.81183 59.0627
rfemur -35.8813 3.07792 11.0054
rtibia 35.8112
rfoot 0.0941417 7.79137
rtoes -15.3753
lfemur 13.1939 -5.75161 -34.9473
ltibia 41.4889
lfoot -9.06598 -5.91544
ltoes -5.13904
101
root -8.42663 16.2212 -6.49146 -3.60193 4.78629 1.14378
lowerback 7.60926 -2.18174 -4.69631
upperback 0.0778644 -3.17946 3.47214
thorax -3.73351 -1.4693 6.61793
lowerneck -16.9371 -2.87336 -9.25153
upperneck 21.0464 -2.46574 4.15941
head 9.63796 -1.42261 2.66092
rclavicle 1.91951e-015 1.35174e-014
rhumerus -40.0465 -14.2497 -71.977
rradius 26.4062
rwrist 12.6826
rhand -13.4117 11.1709
rfingers 7.12502
rthumb 12.6963 -18.4232
lclavicle 1.91951e-015 1.35174e-014
lhumerus -31.3138 8.07905 83.3305
lradius 37.6346
lwrist 5.68495
lhand -16.8448 29.4623
lfingers 7.12502
lthumb 9.38507 59.2333
rfemur -35.5052 2.39432 11.8657
rtibia 37.7764
rfoot -0.930651 8.82164
rtoes -13.3237
lfemur 12.5738 -5.24285 -34.1886
ltibia 44.0027
lfoot -6.66018 -5.75843
ltoes -4.1517
